<svg version="1.1" id="Layer_1" xmlns="http://www.w3.org/2000/svg" xmlns:xlink="http://www.w3.org/1999/xlink" x="0px" y="0px"
	 viewBox="0 0 400 300" enable-background="new 0 0 400 300" xml:space="preserve">
<g>
	<path d="M368.8,66.8c-3.2-4.9-7.5-8.9-12.6-11.8c-5.5-3.2-11.9-5-18.7-5h-250c-6.8,0-13.2,1.8-18.7,5c-5.1,2.9-9.4,7-12.6,11.8
		c-3.9,5.9-6.2,13-6.2,20.7v150c0,20.7,16.8,37.5,37.5,37.5h250c20.7,0,37.5-16.8,37.5-37.5v-150C375,79.9,372.7,72.8,368.8,66.8z
		 M87.5,75h250c0.6,0,1.2,0.1,1.8,0.1L224.9,189.5c-3.3,3.3-7.7,5.1-12.4,5.1s-9.1-1.8-12.4-5.1L85.7,75.1
		C86.3,75.1,86.9,75,87.5,75z M350,237.5c0,6.9-5.6,12.5-12.5,12.5h-250c-6.9,0-12.5-5.6-12.5-12.5v-150c0-0.6,0.1-1.2,0.1-1.8
		l114.4,114.4c6.1,6.1,14.3,9.5,23,9.5s16.8-3.4,23-9.5L349.9,85.7c0.1,0.6,0.1,1.2,0.1,1.8V237.5z"/>
</g>
</svg>